<?xml version="1.0" encoding="UTF-8"?>
<svg id="Layer_1" data-name="Layer 1" xmlns="http://www.w3.org/2000/svg" viewBox="0 0 337.83 355.03">
  <defs>
    <style>
      .cls-1 {
        fill: #fff;
      }
    </style>
  </defs>
  <path class="cls-1" d="M306.32,355.03H33.61c-7.64,0-14.82-2.7-20.6-6.9-10.13-7.37-13.79-18.47-12.87-30.53L17.05,96.67c2.36-16.44,16-28.99,32.74-29.01l51.45-.06c-.08-25.46,14.34-48.6,36.91-60.2,19.05-9.8,42.04-9.87,61.12-.14,22.76,11.6,37.08,34.72,37.1,60.35l52.78.08c6.97.01,12.87,2.94,18.65,6.52,6.51,5.44,12.15,13.01,12.84,21.99l17.05,222.45c.53,6.97-.41,13.24-3.93,19.3-5.71,9.84-15.62,16.12-27.43,17.08ZM202.57,67.59c.06-18.6-15.09-33.82-33.73-33.79-18.46.03-33.79,14.93-33.82,33.79h67.55ZM165.38,264.89l-33.14-52.25,31.06-36.54-33.09-.04-23.65,29.54v-66.9s-27.64.05-27.64.05v126.15s27.63,0,27.63,0l-.02-25.25,7.83-7.84,19.39,33.1,31.63-.02ZM179.14,286.56c6.98,7.87,17.87,12.05,27.96,13,15.35,1.45,33.45-2.57,43.03-15.26,4.65-6.16,7.11-13.56,7.11-21.49l.05-86.74-25.1.02-1.05,7.65c-9.13-10.98-26.5-11.65-38.41-5.15-14.66,8-19.72,25.46-19.63,41.65.04,7.24.69,14.13,3.04,20.94,2.63,7.65,6.95,14.5,13.56,19.31,9,6.55,20.99,7.79,31.2,3.58,3.46-1.43,5.79-3.81,8.57-6.18.27,8.46-1.14,15.92-8.75,19.71-10.16,3.8-22.63,1.6-29.91-7.36l-11.66,16.31Z"/>
  <path class="cls-1" d="M218.78,245.09c-10.12,1.22-15.82-6.3-17.27-15.53-1.69-10.79-.88-26.92,8.97-32.4,5.3-2.94,15.48-1.39,19.01,4.84v37.21c-2.42,3.64-6.25,5.34-10.71,5.88Z"/>
</svg>